<?xml version="1.0" encoding="UTF-8"?>
<svg version="1.1" xmlns="http://www.w3.org/2000/svg" width="202" height="202">
<path d="M0 0 C1.4018896 -0.00599137 2.80377592 -0.01279831 4.20565796 -0.02035522 C7.99926726 -0.03796238 11.79278624 -0.04270841 15.58643246 -0.0439868 C17.96135067 -0.04541216 20.33624619 -0.04968908 22.71115875 -0.05498123 C31.01025337 -0.07346531 39.30928391 -0.08165404 47.60839844 -0.08007812 C55.32182024 -0.07887775 63.03496178 -0.09996368 70.74831271 -0.13156545 C77.3889238 -0.15779427 84.02944374 -0.16844264 90.67010617 -0.16716731 C94.62811988 -0.16665953 98.58588442 -0.17223958 102.54384613 -0.19352341 C106.2704508 -0.21301725 109.99657147 -0.21295519 113.72319412 -0.19849014 C115.72610088 -0.19543247 117.72900827 -0.21200086 119.73184204 -0.22937012 C130.58236894 -0.15455376 139.63597851 2.11434377 148.08691406 9.16943359 C158.07588583 19.38414484 159.46114764 29.47912293 159.45166016 43.12939453 C159.45765152 44.53128413 159.46445846 45.93317045 159.47201538 47.33505249 C159.48962254 51.1286618 159.49436857 54.92218077 159.49564695 58.71582699 C159.49707232 61.0907452 159.50134924 63.46564073 159.50664139 65.84055328 C159.52512547 74.13964791 159.5333142 82.43867844 159.53173828 90.73779297 C159.53053791 98.45121478 159.55162384 106.16435631 159.58322561 113.87770724 C159.60945442 120.51831833 159.62010279 127.15883827 159.61882746 133.7995007 C159.61831969 137.75751441 159.62389973 141.71527895 159.64518356 145.67324066 C159.66467741 149.39984533 159.66461535 153.12596601 159.6501503 156.85258865 C159.64709263 158.85549541 159.66366102 160.8584028 159.68103027 162.86123657 C159.60621392 173.71176347 157.33731638 182.76537304 150.28222656 191.21630859 C140.06751532 201.20528036 129.97253723 202.59054217 116.32226562 202.58105469 C114.92037602 202.58704605 113.5184897 202.593853 112.11660767 202.60140991 C108.32299836 202.61901707 104.52947939 202.6237631 100.73583317 202.62504148 C98.36091496 202.62646685 95.98601943 202.63074377 93.61110687 202.63603592 C85.31201225 202.65452 77.01298171 202.66270873 68.71386719 202.66113281 C61.00044538 202.65993244 53.28730385 202.68101837 45.57395291 202.71262014 C38.93334182 202.73884895 32.29282189 202.74949732 25.65215945 202.74822199 C21.69414574 202.74771422 17.73638121 202.75329427 13.77841949 202.77457809 C10.05181483 202.79407194 6.32569415 202.79400988 2.5990715 202.77954483 C0.59616475 202.77648716 -1.40674264 202.79305555 -3.40957642 202.8104248 C-14.26010331 202.73560845 -23.31371289 200.46671092 -31.76464844 193.41162109 C-41.7536202 183.19690985 -43.13888201 173.10193176 -43.12939453 159.45166016 C-43.1353859 158.04977055 -43.14219284 156.64788424 -43.14974976 155.2460022 C-43.16735691 151.45239289 -43.17210294 147.65887392 -43.17338133 143.8652277 C-43.17480669 141.49030949 -43.17908361 139.11541396 -43.18437576 136.7405014 C-43.20285985 128.44140678 -43.21104857 120.14237624 -43.20947266 111.84326172 C-43.20827228 104.12983991 -43.22935821 96.41669838 -43.26095998 88.70334744 C-43.2871888 82.06273635 -43.29783717 75.42221642 -43.29656184 68.78155398 C-43.29605406 64.82354027 -43.30163411 60.86577574 -43.32291794 56.90781403 C-43.34241179 53.18120936 -43.34234973 49.45508868 -43.32788467 45.72846603 C-43.324827 43.72555928 -43.34139539 41.72265189 -43.35876465 39.71981812 C-43.28394829 28.86929122 -41.01505076 19.81568164 -33.95996094 11.36474609 C-23.7452497 1.37577433 -13.6502716 -0.00948748 0 0 Z M10.41894531 62.22021484 C-0.59078499 75.96811641 -3.31203155 90.83326395 -3.13183594 107.89599609 C-3.12622796 109.47210788 -3.12196355 111.04822495 -3.11897278 112.62434387 C-3.10761844 116.73596095 -3.07823462 120.84725081 -3.04486084 124.95874023 C-3.00850345 129.91150401 -2.99495388 134.86437831 -2.97750092 139.81723785 C-2.94858972 147.30856065 -2.89103812 154.79916809 -2.83886719 162.29052734 C8.38113281 162.29052734 19.60113281 162.29052734 31.16113281 162.29052734 C31.49113281 160.64052734 31.82113281 158.99052734 32.16113281 157.29052734 C33.26521484 157.70625 33.26521484 157.70625 34.39160156 158.13037109 C35.85533203 158.67371094 35.85533203 158.67371094 37.34863281 159.22802734 C38.3115625 159.58767578 39.27449219 159.94732422 40.26660156 160.31787109 C54.68213341 165.16195669 71.80157987 163.21514241 85.33300781 156.78271484 C101.20769088 148.12013398 112.33278577 134.89983839 117.72998047 117.61474609 C119.75645659 110.0214413 119.53633868 102.47209526 119.45410156 94.68505859 C119.44849358 93.10894681 119.44422918 91.53282974 119.4412384 89.95671082 C119.42988406 85.84509374 119.40050025 81.73380387 119.36712646 77.62231445 C119.33076908 72.66955068 119.3172195 67.71667637 119.29976654 62.76381683 C119.27085534 55.27249404 119.21330374 47.7818866 119.16113281 40.29052734 C107.94113281 40.29052734 96.72113281 40.29052734 85.16113281 40.29052734 C84.83113281 41.94052734 84.50113281 43.59052734 84.16113281 45.29052734 C83.42507812 45.01337891 82.68902344 44.73623047 81.93066406 44.45068359 C80.95484375 44.08845703 79.97902344 43.72623047 78.97363281 43.35302734 C78.01070313 42.99337891 77.04777344 42.63373047 76.05566406 42.26318359 C51.98665008 34.17521533 26.82345863 44.05019337 10.41894531 62.22021484 Z " fill="#D62727" transform="translate(42.8388671875,-0.29052734375)"/>
<path d="M0 0 C5.51118969 4.07434381 10.78466964 9.72717999 12.1875 16.6171875 C13.1676722 25.63697442 12.68769478 33.17731051 7.1875 40.6171875 C2.04683954 46.29557395 -3.32611453 50.12965599 -11.01171875 50.96484375 C-20.18263766 51.35150952 -26.97667994 49.99507005 -33.875 43.75 C-40.77884325 36.35713452 -42.47423761 30.15288855 -42.21875 20.125 C-41.37169464 12.81100277 -38.26919656 7.65870374 -32.9375 2.6796875 C-23.24456777 -4.93105929 -10.95537382 -6.37862226 0 0 Z " fill="#D62727" transform="translate(115.8125,77.3828125)"/>
</svg>
