<?xml version="1.0" encoding="UTF-8"?>
<svg version="1.1" xmlns="http://www.w3.org/2000/svg" width="1087" height="202">
<path d="M0 0 C1.4018896 -0.00599137 2.80377592 -0.01279831 4.20565796 -0.02035522 C7.99926726 -0.03796238 11.79278624 -0.04270841 15.58643246 -0.0439868 C17.96135067 -0.04541216 20.33624619 -0.04968908 22.71115875 -0.05498123 C31.01025337 -0.07346531 39.30928391 -0.08165404 47.60839844 -0.08007812 C55.32182024 -0.07887775 63.03496178 -0.09996368 70.74831271 -0.13156545 C77.3889238 -0.15779427 84.02944374 -0.16844264 90.67010617 -0.16716731 C94.62811988 -0.16665953 98.58588442 -0.17223958 102.54384613 -0.19352341 C106.2704508 -0.21301725 109.99657147 -0.21295519 113.72319412 -0.19849014 C115.72610088 -0.19543247 117.72900827 -0.21200086 119.73184204 -0.22937012 C130.58236894 -0.15455376 139.63597851 2.11434377 148.08691406 9.16943359 C158.07588583 19.38414484 159.46114764 29.47912293 159.45166016 43.12939453 C159.45765152 44.53128413 159.46445846 45.93317045 159.47201538 47.33505249 C159.48962254 51.1286618 159.49436857 54.92218077 159.49564695 58.71582699 C159.49707232 61.0907452 159.50134924 63.46564073 159.50664139 65.84055328 C159.52512547 74.13964791 159.5333142 82.43867844 159.53173828 90.73779297 C159.53053791 98.45121478 159.55162384 106.16435631 159.58322561 113.87770724 C159.60945442 120.51831833 159.62010279 127.15883827 159.61882746 133.7995007 C159.61831969 137.75751441 159.62389973 141.71527895 159.64518356 145.67324066 C159.66467741 149.39984533 159.66461535 153.12596601 159.6501503 156.85258865 C159.64709263 158.85549541 159.66366102 160.8584028 159.68103027 162.86123657 C159.60621392 173.71176347 157.33731638 182.76537304 150.28222656 191.21630859 C140.06751532 201.20528036 129.97253723 202.59054217 116.32226562 202.58105469 C114.92037602 202.58704605 113.5184897 202.593853 112.11660767 202.60140991 C108.32299836 202.61901707 104.52947939 202.6237631 100.73583317 202.62504148 C98.36091496 202.62646685 95.98601943 202.63074377 93.61110687 202.63603592 C85.31201225 202.65452 77.01298171 202.66270873 68.71386719 202.66113281 C61.00044538 202.65993244 53.28730385 202.68101837 45.57395291 202.71262014 C38.93334182 202.73884895 32.29282189 202.74949732 25.65215945 202.74822199 C21.69414574 202.74771422 17.73638121 202.75329427 13.77841949 202.77457809 C10.05181483 202.79407194 6.32569415 202.79400988 2.5990715 202.77954483 C0.59616475 202.77648716 -1.40674264 202.79305555 -3.40957642 202.8104248 C-14.26010331 202.73560845 -23.31371289 200.46671092 -31.76464844 193.41162109 C-41.7536202 183.19690985 -43.13888201 173.10193176 -43.12939453 159.45166016 C-43.1353859 158.04977055 -43.14219284 156.64788424 -43.14974976 155.2460022 C-43.16735691 151.45239289 -43.17210294 147.65887392 -43.17338133 143.8652277 C-43.17480669 141.49030949 -43.17908361 139.11541396 -43.18437576 136.7405014 C-43.20285985 128.44140678 -43.21104857 120.14237624 -43.20947266 111.84326172 C-43.20827228 104.12983991 -43.22935821 96.41669838 -43.26095998 88.70334744 C-43.2871888 82.06273635 -43.29783717 75.42221642 -43.29656184 68.78155398 C-43.29605406 64.82354027 -43.30163411 60.86577574 -43.32291794 56.90781403 C-43.34241179 53.18120936 -43.34234973 49.45508868 -43.32788467 45.72846603 C-43.324827 43.72555928 -43.34139539 41.72265189 -43.35876465 39.71981812 C-43.28394829 28.86929122 -41.01505076 19.81568164 -33.95996094 11.36474609 C-23.7452497 1.37577433 -13.6502716 -0.00948748 0 0 Z M10.41894531 62.22021484 C-0.59078499 75.96811641 -3.31203155 90.83326395 -3.13183594 107.89599609 C-3.12622796 109.47210788 -3.12196355 111.04822495 -3.11897278 112.62434387 C-3.10761844 116.73596095 -3.07823462 120.84725081 -3.04486084 124.95874023 C-3.00850345 129.91150401 -2.99495388 134.86437831 -2.97750092 139.81723785 C-2.94858972 147.30856065 -2.89103812 154.79916809 -2.83886719 162.29052734 C8.38113281 162.29052734 19.60113281 162.29052734 31.16113281 162.29052734 C31.49113281 160.64052734 31.82113281 158.99052734 32.16113281 157.29052734 C33.26521484 157.70625 33.26521484 157.70625 34.39160156 158.13037109 C35.85533203 158.67371094 35.85533203 158.67371094 37.34863281 159.22802734 C38.3115625 159.58767578 39.27449219 159.94732422 40.26660156 160.31787109 C54.68213341 165.16195669 71.80157987 163.21514241 85.33300781 156.78271484 C101.20769088 148.12013398 112.33278577 134.89983839 117.72998047 117.61474609 C119.75645659 110.0214413 119.53633868 102.47209526 119.45410156 94.68505859 C119.44849358 93.10894681 119.44422918 91.53282974 119.4412384 89.95671082 C119.42988406 85.84509374 119.40050025 81.73380387 119.36712646 77.62231445 C119.33076908 72.66955068 119.3172195 67.71667637 119.29976654 62.76381683 C119.27085534 55.27249404 119.21330374 47.7818866 119.16113281 40.29052734 C107.94113281 40.29052734 96.72113281 40.29052734 85.16113281 40.29052734 C84.83113281 41.94052734 84.50113281 43.59052734 84.16113281 45.29052734 C83.42507812 45.01337891 82.68902344 44.73623047 81.93066406 44.45068359 C80.95484375 44.08845703 79.97902344 43.72623047 78.97363281 43.35302734 C78.01070313 42.99337891 77.04777344 42.63373047 76.05566406 42.26318359 C51.98665008 34.17521533 26.82345863 44.05019337 10.41894531 62.22021484 Z " fill="#D62727" transform="translate(42.8388671875,-0.29052734375)"/>
<path d="M0 0 C7.59 0 15.18 0 23 0 C23.33 1.98 23.66 3.96 24 6 C24.721875 5.38125 25.44375 4.7625 26.1875 4.125 C32.09971392 -0.34200607 37.77757949 -0.83062901 45 0 C50.01841414 1.64177461 54.04191447 4.53667516 58 8 C58.51949219 7.59007813 59.03898437 7.18015625 59.57421875 6.7578125 C60.27160156 6.21898438 60.96898437 5.68015625 61.6875 5.125 C62.37199219 4.59132813 63.05648438 4.05765625 63.76171875 3.5078125 C70.13943477 -0.78851976 76.82331586 -0.90929582 84.24609375 0.39453125 C89.99759254 2.13231353 93.77607273 6.02469603 97 11 C99.22837584 16.25454657 99.26208106 20.95414034 99.1953125 26.5546875 C99.1924826 27.45623566 99.18965271 28.35778381 99.18673706 29.28665161 C99.17559439 32.14957276 99.1505008 35.01217434 99.125 37.875 C99.11496255 39.82291213 99.10583804 41.77082919 99.09765625 43.71875 C99.07738096 48.47938709 99.03822119 53.23933828 99 58 C91.41 58 83.82 58 76 58 C75.95101563 55.65261719 75.90203125 53.30523437 75.8515625 50.88671875 C75.7975504 48.61297233 75.7402439 46.33933117 75.68261719 44.06567383 C75.64433779 42.48567549 75.60948303 40.90559031 75.578125 39.32543945 C75.53245124 37.05388355 75.47446216 34.78292491 75.4140625 32.51171875 C75.40251129 31.80536789 75.39096008 31.09901703 75.37905884 30.3712616 C75.26928952 26.72258607 75.07857636 25.11786454 73 22 C69.36829715 20.82215043 66.66538364 21.05747278 63 22 C61.82874626 25.7513465 61.77940135 29.49631612 61.68359375 33.390625 C61.66281265 34.09523865 61.64203156 34.79985229 61.62062073 35.52581787 C61.55546163 37.76711681 61.49639752 40.00852864 61.4375 42.25 C61.39428274 43.77344897 61.35066743 45.29688671 61.30664062 46.8203125 C61.19906885 50.54676119 61.0997465 54.2733008 61 58 C53.41 58 45.82 58 38 58 C37.98582031 55.58042969 37.97164062 53.16085938 37.95703125 50.66796875 C37.92641708 48.3246463 37.88732719 45.98160801 37.84741211 43.63842773 C37.82421533 42.00994923 37.8098324 40.38132034 37.80444336 38.75268555 C37.79516508 36.41099159 37.75420744 34.07166792 37.70703125 31.73046875 C37.7109639 31.00224411 37.71489655 30.27401947 37.71894836 29.52372742 C37.70681523 27.21234082 37.70681523 27.21234082 37 24 C34.78110729 21.85275408 34.78110729 21.85275408 32 21 C27.78709759 21.74066081 27.78709759 21.74066081 24.85009766 24.64160156 C23.68952205 27.86134892 23.67002021 30.75251142 23.5859375 34.171875 C23.56657135 34.8542926 23.5472052 35.53671021 23.5272522 36.23980713 C23.46768902 38.40974608 23.42116554 40.57973877 23.375 42.75 C23.33679869 44.22528297 23.2977457 45.70054415 23.2578125 47.17578125 C23.16040985 50.78373785 23.08066114 54.39147513 23 58 C15.41 58 7.82 58 0 58 C0 38.86 0 19.72 0 0 Z " fill="#FDFDFD" transform="translate(988,71)"/>
<path d="M0 0 C7.59 0 15.18 0 23 0 C23.33 1.65 23.66 3.3 24 5 C25.3921875 4.0409375 25.3921875 4.0409375 26.8125 3.0625 C32.37632048 -0.53761913 37.52387867 -0.76735292 44 0 C49.02420752 1.76802955 53.00951121 3.51426682 56 8 C58.47894956 6.89824464 60.3245446 5.733707 62.4375 4 C68.21803991 -0.51164091 73.91677402 -0.63580149 81 0 C86.61826947 1.21271246 90.36495568 3.4561946 94 8 C98.28800713 15.14184972 99.1523308 21.28200822 99.09765625 29.58203125 C99.0962413 30.39621017 99.09482635 31.2103891 99.09336853 32.04924011 C99.08779317 34.63703156 99.07524524 37.22473492 99.0625 39.8125 C99.05748181 41.57226437 99.05291946 43.33203011 99.04882812 45.09179688 C99.03868481 49.39459209 99.0191047 53.697198 99 58 C91.41 58 83.82 58 76 58 C75.96261719 55.82019531 75.92523437 53.64039063 75.88671875 51.39453125 C75.84044752 49.27293115 75.78923454 47.15150358 75.73754883 45.0300293 C75.70438741 43.56073578 75.67632822 42.09131756 75.65356445 40.62182617 C75.61985481 38.50385632 75.56753567 36.38702005 75.51171875 34.26953125 C75.48553467 32.99698486 75.45935059 31.72443848 75.43237305 30.41333008 C74.97514727 26.80380234 74.19984136 24.86899715 72 22 C68.87881708 20.68581772 67.53582557 20.79203117 64.38012695 22.0168457 C61.64540393 23.86874048 61.64540393 23.86874048 61.34057617 27.46166992 C61.29951552 28.88409883 61.28528409 30.30746807 61.29296875 31.73046875 C61.27784744 32.48088943 61.26272614 33.23131012 61.24714661 34.00447083 C61.20419002 36.39911761 61.19542488 38.79250595 61.1875 41.1875 C61.16436157 42.8118826 61.13899758 44.43623514 61.11132812 46.06054688 C61.04420666 50.04105343 61.02333598 54.0180329 61 58 C53.41 58 45.82 58 38 58 C37.93941406 55.82019531 37.87882813 53.64039063 37.81640625 51.39453125 C37.75451899 49.27299875 37.69117198 47.15151448 37.62768555 45.0300293 C37.58449295 43.56067232 37.54280744 42.0912702 37.50268555 40.62182617 C37.44460118 38.50425645 37.38101902 36.38691063 37.31640625 34.26953125 C37.26141968 32.36071167 37.26141968 32.36071167 37.20532227 30.41333008 C37.0299208 27.49741104 36.66607117 24.83732095 36 22 C32.35705566 21.21426691 29.84816165 20.68602262 26.3059082 21.99731445 C23.65182544 23.88508127 23.65182544 23.88508127 23.34057617 27.46166992 C23.29951552 28.88409883 23.28528409 30.30746807 23.29296875 31.73046875 C23.27784744 32.48088943 23.26272614 33.23131012 23.24714661 34.00447083 C23.20419002 36.39911761 23.19542488 38.79250595 23.1875 41.1875 C23.16436157 42.8118826 23.13899758 44.43623514 23.11132812 46.06054688 C23.04420666 50.04105343 23.02333598 54.0180329 23 58 C15.41 58 7.82 58 0 58 C0 38.86 0 19.72 0 0 Z " fill="#FDFDFD" transform="translate(779,71)"/>
<path d="M0 0 C2.375 1.625 2.375 1.625 4.375 3.625 C4.705 1.975 5.035 0.325 5.375 -1.375 C12.965 -1.375 20.555 -1.375 28.375 -1.375 C28.44301315 6.81413242 28.49795203 15.00304201 28.53043652 23.19238186 C28.54603429 26.99579372 28.56716348 30.79900085 28.60131836 34.60229492 C28.63412385 38.27870229 28.6518972 41.95491383 28.65963173 45.63145638 C28.66513751 47.02796571 28.67588814 48.42446539 28.69219017 49.82089043 C28.80804735 60.16477226 28.2985091 69.42610764 21.375 77.625 C13.38585254 84.58006157 5.11019405 85.97091791 -5.25 85.5 C-14.01897551 84.59608902 -21.80649436 81.46852736 -27.625 74.625 C-30.4492664 69.89560715 -31.71666897 66.12798486 -31.625 60.625 C-27.85431168 60.538015 -24.08388068 60.48461421 -20.3125 60.4375 C-19.24064453 60.41236328 -18.16878906 60.38722656 -17.06445312 60.36132812 C-16.03642578 60.35166016 -15.00839844 60.34199219 -13.94921875 60.33203125 C-12.5274231 60.30846558 -12.5274231 60.30846558 -11.0769043 60.28442383 C-8.15596469 60.69015028 -7.56327427 61.51464712 -5.625 63.625 C-2.125 64.20833333 -2.125 64.20833333 1.375 63.625 C3.49170357 62.16458234 3.49170357 62.16458234 4.375 59.625 C4.62563732 55.95785151 4.62563732 55.95785151 4.375 52.625 C3.611875 53.264375 2.84875 53.90375 2.0625 54.5625 C-3.26020594 58.64736735 -9.1744782 58.198744 -15.625 57.625 C-21.8791424 55.90329579 -26.06707527 51.92853155 -29.625 46.625 C-34.62631793 37.46242927 -35.15265929 26.15084312 -32.375 16.1875 C-29.98938645 9.33024802 -26.40384491 4.87068198 -20.625 0.625 C-14.14133575 -2.50767953 -6.6830721 -2.53495838 0 0 Z M-8.625 21.625 C-10.35160813 25.07821627 -10.11547852 28.84898729 -9.625 32.625 C-7.8198838 35.20373743 -6.4805346 36.21103164 -3.6875 37.5625 C-0.62360514 37.6553453 0.94943399 36.41225916 3.375 34.625 C5.8665904 30.8876144 5.83293285 29.05168417 5.375 24.625 C3.53364071 21.48786936 2.30972684 20.00847768 -1.0625 18.625 C-4.39156554 18.625 -5.99042463 19.64906848 -8.625 21.625 Z " fill="#FDFDFD" transform="translate(374.625,72.375)"/>
<path d="M0 0 C6.0225 -0.0825 12.045 -0.165 18.25 -0.25 C20.12461914 -0.28641602 21.99923828 -0.32283203 23.93066406 -0.36035156 C35.43535502 -0.49265326 46.75125188 -0.16401786 55.5 8.375 C63.59794169 16.35633133 67.00094835 24.49455022 67.4375 35.875 C67.13993257 45.83703999 64.27842801 55.9156634 57 63 C48.75667335 69.81240957 40.18399662 72.49722826 29.58984375 72.29296875 C28.83223755 72.28994751 28.07463135 72.28692627 27.29406738 72.28381348 C24.50840305 72.26831196 21.72293542 72.22643064 18.9375 72.1875 C9.5634375 72.0946875 9.5634375 72.0946875 0 72 C0 48.24 0 24.48 0 0 Z M23 20 C23 30.23 23 40.46 23 51 C33.10442698 51.67558532 33.10442698 51.67558532 40 47 C43.89432221 41.56475892 43.78991116 36.47727154 43 30 C40.87421533 25.51223236 38.61633899 22.86617959 34 21 C30.37 20.67 26.74 20.34 23 20 Z " fill="#FDFDFD" transform="translate(238,57)"/>
<path d="M0 0 C2.3125 1.625 2.3125 1.625 4.3125 3.625 C4.6425 1.975 4.9725 0.325 5.3125 -1.375 C12.9025 -1.375 20.4925 -1.375 28.3125 -1.375 C28.3125 17.765 28.3125 36.905 28.3125 56.625 C20.7225 56.625 13.1325 56.625 5.3125 56.625 C4.8175 54.645 4.8175 54.645 4.3125 52.625 C3.549375 53.264375 2.78625 53.90375 2 54.5625 C-3.32270594 58.64736735 -9.2369782 58.198744 -15.6875 57.625 C-21.89765583 55.91540486 -26.28778385 52.00620752 -29.6875 46.625 C-34.82594125 36.93855951 -35.20419311 25.82669063 -32.6875 15.25 C-30.34055897 8.58735698 -25.51047282 3.79146751 -20 -0.4375 C-13.40779257 -2.30321908 -6.43209774 -2.39840933 0 0 Z M-8.6875 21.625 C-10.41010269 25.07020538 -10.05688476 28.85055935 -9.6875 32.625 C-8.25532923 35.64009635 -7.39489331 36.3457658 -4.3125 37.5625 C-0.89161409 37.64394966 0.61106145 36.66933188 3.3125 34.625 C5.8040904 30.8876144 5.77043285 29.05168417 5.3125 24.625 C3.47114071 21.48786936 2.24722684 20.00847768 -1.125 18.625 C-4.45406554 18.625 -6.05292463 19.64906848 -8.6875 21.625 Z " fill="#FDFDFD" transform="translate(518.6875,72.375)"/>
<path d="M0 0 C6.39375 -0.0825 12.7875 -0.165 19.375 -0.25 C21.37224121 -0.28641602 23.36948242 -0.32283203 25.42724609 -0.36035156 C44.23563091 -0.56345887 44.23563091 -0.56345887 52.4375 5.9296875 C52.953125 6.57164063 53.46875 7.21359375 54 7.875 C54.53625 8.51179688 55.0725 9.14859375 55.625 9.8046875 C60.0454009 16.8622594 60.01841934 25.37091857 58.5703125 33.375 C56.68807567 39.32379789 52.53990536 43.9037003 47.19921875 47.06640625 C39.42799774 50.63324161 31.34897297 50.0851936 23 50 C23 57.26 23 64.52 23 72 C15.41 72 7.82 72 0 72 C0 48.24 0 24.48 0 0 Z M23 19 C23 22.96 23 26.92 23 31 C29.39825263 31.47326369 29.39825263 31.47326369 35 29 C36.00674926 26.12680099 36.00674926 26.12680099 36 23 C34.92109941 20.73140923 34.92109941 20.73140923 33 19 C30.49119384 18.51738333 30.49119384 18.51738333 27.8125 18.75 C26.224375 18.8325 24.63625 18.915 23 19 Z " fill="#FDFDFD" transform="translate(605,57)"/>
<path d="M0 0 C7.59 0 15.18 0 23 0 C23.03738281 2.40796875 23.07476563 4.8159375 23.11328125 7.296875 C23.1595164 9.63355501 23.21074264 11.97007609 23.26245117 14.30664062 C23.29566835 15.92828686 23.32371035 17.55004781 23.34643555 19.171875 C23.38004155 21.50570477 23.4323576 23.83848635 23.48828125 26.171875 C23.49467117 26.89493835 23.5010611 27.61800171 23.50764465 28.36297607 C23.62708965 32.46877245 23.96314085 35.10319018 27 38 C29.27889342 38.48168728 29.27889342 38.48168728 31.6875 38.25 C32.89986328 38.19585937 32.89986328 38.19585937 34.13671875 38.140625 C34.75160156 38.09421875 35.36648438 38.0478125 36 38 C37.23323001 34.12037251 37.22322949 30.2031527 37.31640625 26.171875 C37.33718735 25.42286926 37.35796844 24.67386353 37.37937927 23.90216064 C37.44457088 21.51819712 37.50361783 19.13412688 37.5625 16.75 C37.60571416 15.13019746 37.64932937 13.51040557 37.69335938 11.890625 C37.80097311 7.92719095 37.90027164 3.96367166 38 0 C45.59 0 53.18 0 61 0 C61 19.14 61 38.28 61 58 C53.41 58 45.82 58 38 58 C37.67 56.35 37.34 54.7 37 53 C36.54109375 53.34933594 36.0821875 53.69867188 35.609375 54.05859375 C34.68898438 54.74115234 34.68898438 54.74115234 33.75 55.4375 C33.14671875 55.88996094 32.5434375 56.34242187 31.921875 56.80859375 C27.16057995 59.76020958 21.42079222 59.57876127 16 59 C10.16837153 57.23130852 6.37020822 54.10345816 3 49 C0.26571272 42.78525183 -0.41869888 37.09857586 -0.29296875 30.37109375 C-0.28872391 29.49598648 -0.28447906 28.62087921 -0.28010559 27.71925354 C-0.26347981 24.95833928 -0.22585966 22.19818895 -0.1875 19.4375 C-0.17243228 17.55144293 -0.15874756 15.66537427 -0.14648438 13.77929688 C-0.11619676 9.18567577 -0.0574476 4.59368027 0 0 Z " fill="#FDFDFD" transform="translate(918,71)"/>
<path d="M0 0 C6.82170834 3.86922983 10.23620065 9.06289921 12.76953125 16.42578125 C14.21041028 22.01523146 13.7607708 24.84742737 12.9765625 31.12109375 C1.4265625 31.12109375 -10.1234375 31.12109375 -22.0234375 31.12109375 C-21.3634375 32.77109375 -20.7034375 34.42109375 -20.0234375 36.12109375 C-17.10691576 36.28790484 -17.10691576 36.28790484 -14.0234375 36.12109375 C-13.3634375 35.46109375 -12.7034375 34.80109375 -12.0234375 34.12109375 C-9.59326172 33.89404297 -9.59326172 33.89404297 -6.578125 33.92578125 C-4.96357422 33.93544922 -4.96357422 33.93544922 -3.31640625 33.9453125 C-1.62451172 33.97044922 -1.62451172 33.97044922 0.1015625 33.99609375 C1.80505859 34.00962891 1.80505859 34.00962891 3.54296875 34.0234375 C6.35437549 34.04706277 9.16536548 34.08000362 11.9765625 34.12109375 C11.26218972 40.79124855 9.71509429 44.43004224 4.9765625 49.12109375 C-4.21040289 55.80515361 -11.73031568 56.99917666 -23.0234375 56.12109375 C-29.28878385 54.58399545 -34.59093348 51.86284224 -39.0234375 47.12109375 C-44.84816631 37.38683229 -47.0069651 27.51991634 -44.33984375 16.2265625 C-41.65824231 8.98290051 -37.79121946 3.31944962 -30.8359375 -0.25390625 C-21.38233737 -4.54252169 -9.39395751 -4.53988916 0 0 Z M-21.0234375 17.12109375 C-21.3534375 18.44109375 -21.6834375 19.76109375 -22.0234375 21.12109375 C-18.0634375 21.12109375 -14.1034375 21.12109375 -10.0234375 21.12109375 C-10.6834375 19.47109375 -11.3434375 17.82109375 -12.0234375 16.12109375 C-15.58221171 14.71631446 -17.93867559 14.80752232 -21.0234375 17.12109375 Z " fill="#FCFCFC" transform="translate(759.0234375,73.87890625)"/>
<path d="M0 0 C5.51118969 4.07434381 10.78466964 9.72717999 12.1875 16.6171875 C13.1676722 25.63697442 12.68769478 33.17731051 7.1875 40.6171875 C2.04683954 46.29557395 -3.32611453 50.12965599 -11.01171875 50.96484375 C-20.18263766 51.35150952 -26.97667994 49.99507005 -33.875 43.75 C-40.77884325 36.35713452 -42.47423761 30.15288855 -42.21875 20.125 C-41.37169464 12.81100277 -38.26919656 7.65870374 -32.9375 2.6796875 C-23.24456777 -4.93105929 -10.95537382 -6.37862226 0 0 Z " fill="#D62727" transform="translate(115.8125,77.3828125)"/>
<path d="M0 0 C7.59 0 15.18 0 23 0 C23 4.29 23 8.58 23 13 C25.97 13 28.94 13 32 13 C32 19.6 32 26.2 32 33 C29.03 33 26.06 33 23 33 C23.495 41.415 23.495 41.415 24 50 C26.64 50.33 29.28 50.66 32 51 C32 57.6 32 64.2 32 71 C12.01426388 71.62455425 12.01426388 71.62455425 5.4921875 65.609375 C-0.52943126 59.07161749 -0.26516207 51.98081589 -0.125 43.625 C-0.11597656 42.60277344 -0.10695313 41.58054688 -0.09765625 40.52734375 C-0.0742043 38.01798478 -0.04138355 35.50911664 0 33 C-2.31 33 -4.62 33 -7 33 C-7 26.4 -7 19.8 -7 13 C-4.69 13 -2.38 13 0 13 C0 8.71 0 4.42 0 0 Z " fill="#FDFDFD" transform="translate(448,58)"/>
<path d="M0 0 C7.59 0 15.18 0 23 0 C23.33 2.64 23.66 5.28 24 8 C24.51949219 7.59007813 25.03898438 7.18015625 25.57421875 6.7578125 C31.1973631 2.41312796 34.68659253 0 42 0 C42 8.25 42 16.5 42 25 C38.04 25.33 34.08 25.66 30 26 C25.10396859 28.27924837 25.10396859 28.27924837 24.20727539 30.82128906 C23.95203464 33.50417298 23.77980901 36.1653476 23.68359375 38.859375 C23.64169922 39.97441406 23.59980469 41.08945313 23.55664062 42.23828125 C23.51732422 43.39714844 23.47800781 44.55601563 23.4375 45.75 C23.39431641 46.92433594 23.35113281 48.09867188 23.30664062 49.30859375 C23.20065283 52.20559355 23.09983084 55.1027815 23 58 C15.41 58 7.82 58 0 58 C0 38.86 0 19.72 0 0 Z " fill="#FDFDFD" transform="translate(670,71)"/>
<path d="M0 0 C7.59 0 15.18 0 23 0 C23 24.75 23 49.5 23 75 C15.41 75 7.82 75 0 75 C0 50.25 0 25.5 0 0 Z " fill="#FDFDFD" transform="translate(556,54)"/>
<path d="M0 0 C7.59 0 15.18 0 23 0 C23 19.14 23 38.28 23 58 C15.41 58 7.82 58 0 58 C0 38.86 0 19.72 0 0 Z " fill="#FDFDFD" transform="translate(886,71)"/>
<path d="M0 0 C7.59 0 15.18 0 23 0 C23 19.14 23 38.28 23 58 C15.41 58 7.82 58 0 58 C0 38.86 0 19.72 0 0 Z " fill="#FDFDFD" transform="translate(412,71)"/>
<path d="M0 0 C7.59 0 15.18 0 23 0 C23 19.14 23 38.28 23 58 C15.41 58 7.82 58 0 58 C0 38.86 0 19.72 0 0 Z " fill="#FDFDFD" transform="translate(312,71)"/>
<path d="M0 0 C3.2262505 1.63738277 5.35978168 3.71956336 7 7 C7.54016597 11.50728651 7.60322525 14.94994123 5.3125 18.9375 C1.15876749 22.64218035 -2.42380251 23.41194427 -8.0078125 23.25390625 C-12.01633316 22.74301636 -14.87313994 20.97661205 -17.875 18.375 C-19.87507587 14.15261761 -19.78127956 9.31362344 -18.29296875 4.90625 C-14.06027383 -1.3340978 -6.75449964 -1.00404724 0 0 Z " fill="#FBFBFB" transform="translate(904,45)"/>
<path d="M0 0 C3.23307772 1.61956043 5.36183145 3.7236629 7 7 C7.34444547 12.25279338 7.57741751 15.82634624 4 20 C-0.55830501 23.07420571 -4.6510212 23.79006873 -10 23 C-14.24583666 21.39779749 -16.61818858 19.84229178 -19 16 C-19.66367922 12.59864398 -19.6069482 9.40994532 -19 6 C-13.75769992 -0.75980799 -8.1473554 -0.97725775 0 0 Z " fill="#FCFCFC" transform="translate(430,45)"/>
<path d="M0 0 C4.15347031 2.04030121 6.30560797 3.72888275 8 8 C8.32878184 11.82893857 8.12658893 15.56646618 5.6953125 18.66015625 C0.98343213 22.68049199 -2.94642855 23.41041162 -9 23 C-12.49620563 21.5880708 -15.89650713 20.21059438 -18 17 C-19.04131937 12.46282273 -19.37285519 10.0978514 -17.875 5.6875 C-13.33945964 -0.81344118 -7.44584739 -0.9935075 0 0 Z " fill="#FCFCFC" transform="translate(329,45)"/>
</svg>
